# xmcd CD database file
# Copyright (C) 1995-1998 Ti Kan
#
# Track frame offsets:
#	182
#	17002
#	27185
#	38070
#	48130
#	59710
#	70080
#	82787
#	94947
#	105102
#	117197
#	128270
#
# Disc length: 1828 seconds
#
# Revision: 1
# Processed by: cddbd v1.4PL0 Copyright (c) Steve Scherf et al.
# Submitted via: CDex 1.30Release
#
DISCID=8407220c
DTITLE=Rita Pavone - I grandi successi originali cd1
DYEAR=1900
DGENRE=Blues
TTITLE0=Cuore
TTITLE1=Alla mia età
TTITLE2=Che m'importa del mondo
TTITLE3=Il geghegè
TTITLE4=To conosciuto
TTITLE5=Il ballo del mattone
TTITLE6=Datemi un martello
TTITLE7=Come te non c'è nessuno
TTITLE8=La partita di pallone
TTITLE9=Non è facile avere 18 anni
TTITLE10=Pel di carota
TTITLE11=Plip
EXTD=ID3G:   0
EXTT0=
EXTT1=
EXTT2=
EXTT3=
EXTT4=
EXTT5=
EXTT6=
EXTT7=
EXTT8=
EXTT9=
EXTT10=
EXTT11=
PLAYORDER=
